<svg width="1175" height="541" viewBox="0 0 1175 541" fill="none" xmlns="http://www.w3.org/2000/svg">
<path d="M130.538 202.436H130.43C132.698 210.752 130.646 218.42 127.406 226.088C126.11 229.22 123.41 231.704 120.386 233.108C118.766 233.864 117.146 234.296 115.418 234.512C114.014 234.62 112.394 234.728 110.882 234.62C110.018 234.62 109.154 234.512 108.398 234.296C105.05 233.324 101.378 233.108 98.0295 232.028C95.8695 231.272 93.6015 229.76 92.0895 228.032C86.0415 221.228 86.0415 213.992 91.5495 206.864C96.1935 201.032 102.566 198.656 109.586 197.576C111.962 197.252 114.446 197.576 116.93 197.252C117.794 197.144 119.306 195.848 119.306 195.092C119.63 187.424 120.278 179.648 118.01 171.98C117.254 169.712 117.254 167.228 117.362 164.852C117.47 163.772 118.658 162.8 119.522 161.936C120.71 160.748 121.682 161.828 122.546 162.584C124.814 164.42 126.542 166.364 126.758 169.712C127.082 174.14 128.27 178.46 128.702 182.888C129.134 187.424 129.026 191.96 129.35 196.388C129.458 198.44 129.998 200.384 130.538 202.436ZM119.954 221.66C122.33 217.88 122.33 213.884 121.898 209.78C121.682 207.512 119.198 205.244 116.93 204.92C109.478 204.164 103.106 206.324 98.3535 212.372C96.3015 214.856 96.4095 217.88 97.3815 220.58C98.3535 223.388 100.838 225.008 104.078 225.008C105.806 225.008 107.426 225.008 109.046 225.008V225.116C111.098 225.116 113.15 225.116 115.202 225.008C117.47 225.008 118.658 223.604 119.954 221.66ZM166.044 192.932C168.096 194.336 168.204 197.36 166.26 198.656C164.1 199.952 161.292 199.736 159.24 201.356C157.08 202.976 156.324 205.784 155.676 208.268C154.596 213.02 152.868 217.556 151.248 222.2C150.708 223.928 148.44 225.332 146.928 225.116C145.2 224.9 143.256 223.172 143.04 221.444C142.824 219.176 142.824 216.908 142.608 212.156C142.392 210.752 143.364 207.62 146.604 204.704C149.628 202.004 151.464 198.116 153.948 194.876C156.54 191.42 160.212 191.096 164.1 191.852C164.856 191.96 165.396 192.608 166.044 192.932ZM216.687 231.704C216.795 232.028 216.795 232.352 216.687 232.784C216.471 234.08 215.499 235.484 214.419 236.024C212.259 237.212 209.019 236.564 208.155 235.052C206.751 232.46 205.347 229.868 205.239 226.736C205.239 225.332 204.699 223.712 203.835 222.524C203.403 221.876 201.783 221.12 201.243 221.444C199.191 222.416 197.571 223.928 195.627 225.116C194.331 225.98 193.035 226.736 191.523 227.06C183.531 229.112 176.511 222.2 178.239 213.992C178.455 212.912 178.887 211.832 179.319 210.86C182.127 204.92 186.339 200.384 192.279 197.36C198.111 194.336 203.187 196.064 207.939 199.52C208.911 200.276 209.559 202.112 209.451 203.516C209.127 209.24 210.207 214.64 212.043 220.04C213.015 222.848 214.419 225.44 215.607 228.248C216.039 229.328 216.471 230.516 216.687 231.704ZM198.651 211.724C199.515 210.86 202.863 207.836 202.647 206C202.539 205.352 202.107 204.812 200.919 204.596C193.899 203.192 187.419 208.052 186.663 215.396C186.339 217.88 189.147 218.636 191.091 218.204C194.007 217.556 196.707 213.668 198.651 211.724ZM291.773 187.1C293.717 187.856 295.553 190.556 295.121 192.284C292.637 201.68 290.261 211.076 287.345 220.364C286.157 224.036 283.457 227.168 281.189 230.408C280.541 231.38 279.137 232.136 278.057 232.352C273.305 233.216 268.877 233.108 265.745 228.032C263.801 224.576 261.209 221.552 258.833 218.528C257.321 216.584 256.349 216.584 254.729 218.312C251.813 221.444 248.897 224.792 245.873 227.816C243.173 230.516 239.609 230.408 236.801 227.708C235.505 226.52 234.425 225.116 233.129 223.928C229.241 220.148 226.757 215.612 227.513 209.672C227.621 208.808 227.513 207.944 227.513 206.972H227.621C227.621 204.812 227.405 202.436 227.729 200.276C227.837 199.304 229.133 198.008 229.997 197.9C230.969 197.792 232.265 198.764 233.129 199.52C235.289 201.572 234.749 204.488 234.857 207.188C234.965 210.428 235.937 213.128 237.989 215.72C240.689 219.068 241.877 219.176 244.793 215.612C246.953 212.912 248.681 209.888 250.733 207.08C252.029 205.244 253.433 203.624 254.945 202.004C256.889 199.952 259.589 200.168 261.533 202.652C262.829 204.38 264.665 206.216 264.881 208.16C265.421 212.048 267.797 214.532 269.741 217.448C273.197 222.74 275.357 222.632 278.057 216.692C280.757 210.644 281.729 203.948 283.025 197.468C283.673 194.336 284.861 191.528 286.157 188.72C286.913 186.992 289.721 186.344 291.773 187.1ZM386.383 203.3C388.975 205.244 389.947 208.052 389.839 211.292C389.731 215.828 387.679 219.176 385.087 222.524C383.035 225.224 380.011 225.332 377.095 226.304C373.207 227.708 369.751 226.736 366.295 225.548C362.407 224.252 358.735 222.092 356.575 218.204C354.847 215.288 353.551 211.508 353.335 207.836C353.119 204.704 353.767 201.572 355.711 198.98C357.655 196.496 359.815 194.876 363.271 195.524C365.863 196.064 368.455 196.28 371.047 196.496C376.987 197.036 381.847 199.952 386.383 203.3ZM380.119 213.884C381.631 212.156 380.875 209.24 379.039 208.052C375.367 205.784 371.479 204.92 368.023 205.136C360.787 205.028 360.139 206 362.515 212.156C363.811 215.612 369.535 219.5 373.099 219.176C373.855 219.068 374.719 218.96 375.259 218.528C376.879 217.016 378.607 215.612 380.119 213.884ZM444.415 196.712C444.847 199.412 443.335 203.192 441.283 206.648C437.503 212.696 433.615 218.744 429.511 224.576C428.215 226.196 425.947 227.168 424.219 228.464C422.707 229.544 421.195 229.976 419.359 229.004C416.011 227.384 412.987 225.656 410.719 222.74C404.671 215.18 401.431 206.54 401.323 196.928C401.215 195.308 402.403 193.688 403.267 192.176C403.915 190.988 405.751 191.204 406.723 191.96C408.559 193.58 408.667 195.74 409.099 198.008C410.611 205.568 413.635 212.372 419.035 217.988C420.547 219.5 422.491 219.392 423.355 217.556C427.351 209.132 434.371 202.328 436.639 192.932C437.071 190.88 438.799 190.232 440.743 190.448C442.795 190.556 443.767 191.96 444.091 193.904C444.091 194.336 444.199 194.768 444.415 196.712ZM487.281 219.716C489.117 219.176 491.169 220.364 491.493 221.984C491.925 223.928 491.709 226.088 489.981 226.952C482.205 231.272 474.321 235.376 465.141 233.54C462.873 233.108 461.253 231.812 459.849 230.192C454.881 224.468 454.233 211.292 458.445 204.488C460.929 200.384 464.709 198.548 468.813 197.252C469.677 196.928 470.865 197.252 471.837 197.576C474.537 198.548 477.129 199.52 479.721 200.6C482.529 202.004 483.717 204.92 482.853 208.052C481.665 212.588 479.397 216.368 475.833 218.96C473.781 220.472 471.405 221.336 469.245 222.632C468.597 223.064 467.085 224.36 467.085 225.332C467.085 226.736 469.245 226.304 470.109 226.088C473.997 225.548 478.101 224.252 481.341 221.984C483.069 220.796 485.229 220.256 487.281 219.716ZM465.141 214.748C465.897 215.288 466.761 215.396 467.625 215.18C468.381 215.072 469.245 214.64 469.893 214.208C471.513 213.128 472.917 211.616 473.889 209.888C474.105 209.564 474.321 209.132 474.429 208.808C474.537 208.376 474.537 208.052 474.537 207.728C474.213 206 471.621 205.568 470.217 205.676C468.057 205.784 465.897 207.08 464.709 209.132C464.169 209.996 463.845 211.076 463.953 212.048C463.953 213.128 464.385 214.208 465.141 214.748ZM524.433 194.984C525.837 195.308 527.673 197.468 527.781 198.872C527.889 201.464 526.053 202.328 523.785 202.76C520.977 203.3 518.709 203.948 516.657 206C513.201 209.132 511.365 209.564 510.393 214.856C509.853 218.096 510.177 221.444 509.745 224.792C509.421 227.168 505.965 229.652 503.697 228.896C503.265 228.68 502.833 228.356 502.401 227.924C501.861 227.06 502.077 226.088 501.969 225.116C501.861 223.28 501.537 221.552 501.213 219.824C500.457 216.152 499.377 212.696 498.081 209.24C496.677 205.568 498.945 202.868 502.293 204.272C504.561 205.244 505.749 205.352 507.693 203.624C509.745 201.572 511.473 199.088 513.957 197.468C516.441 195.848 519.573 195.2 522.489 194.876C523.137 194.876 523.785 194.768 524.433 194.984ZM626.828 185.588C628.232 185.372 631.04 187.208 630.5 188.72C630.392 189.26 630.068 189.692 630.176 190.124C630.284 190.34 630.392 190.556 630.5 190.88C630.5 191.204 630.176 191.528 629.96 191.744C626.396 195.092 621.32 194.012 617.108 195.416C616.568 195.632 616.028 195.848 615.38 195.848C615.056 195.848 614.624 195.848 614.3 195.956C613.328 196.28 613.328 197.576 613.22 198.44C612.788 201.464 611.924 204.488 611.492 207.512C610.628 213.992 609.872 220.364 609.332 226.736C608.9 230.948 613.328 234.188 609.332 238.292C608.36 239.264 606.524 239.696 605.12 239.912C603.608 240.128 603.176 238.724 602.42 237.644C600.26 234.512 600.584 231.056 600.152 228.572C600.044 224.684 600.476 221.768 600.8 218.852C601.016 215.936 601.772 213.02 602.636 210.212C602.96 208.916 603.5 204.488 603.824 203.408C604.148 202.22 604.364 200.924 604.364 199.736C604.364 199.304 603.608 198.548 603.068 198.44C602.312 198.332 601.448 198.44 600.8 198.764C598.856 199.52 596.912 199.844 594.752 199.844C590 200.06 585.356 201.572 580.604 201.248C579.416 201.14 578.876 200.816 578.012 199.736C576.716 197.684 578.12 193.904 580.388 193.256C581.36 192.932 582.332 193.04 583.304 193.148C585.248 193.364 587.408 192.824 589.244 192.392C590.324 192.176 594.968 191.636 596.264 191.42C598.748 190.88 601.34 190.016 603.932 189.584C605.12 189.368 605.336 188.828 605.66 187.748C606.74 183.86 606.632 179.864 606.416 175.976C606.308 173.168 607.928 171.872 609.764 170.468C610.412 169.928 611.708 169.82 612.464 170.144C613.544 170.684 614.408 171.872 615.38 172.628C616.892 173.708 613.868 182.888 614.3 184.94C614.516 186.128 614.84 186.668 616.028 186.56C616.784 186.56 625.424 185.804 626.828 185.588ZM693.082 217.988C693.839 219.716 693.515 221.768 691.895 223.172C691.139 223.928 690.491 225.008 689.086 224.144C686.495 222.416 684.983 219.824 683.579 217.016C682.607 214.856 680.555 213.992 678.071 213.668C670.511 212.588 664.787 215.72 660.359 221.552C657.875 224.792 656.039 228.572 653.555 231.92C652.583 233.108 651.179 233.972 649.667 234.296C648.803 234.404 648.047 234.296 647.183 233.972C645.779 233.324 644.051 232.028 643.835 230.408C643.619 228.896 643.619 227.384 643.619 225.872C643.511 218.636 643.187 211.4 643.511 204.272C643.727 199.304 641.891 194.228 641.027 189.368C640.919 188.828 640.811 188.396 640.595 187.856C640.055 186.452 638.543 185.588 637.895 184.184C637.031 182.348 638.327 180.62 639.407 179.108C641.135 176.624 645.995 177.164 646.967 180.08C648.479 184.724 650.531 189.26 650.099 194.336C649.667 201.14 651.503 207.728 652.583 214.424C652.691 215.504 654.095 215.828 655.067 214.964C655.931 214.1 656.687 213.344 657.443 212.48C662.951 206.324 669.647 204.164 677.855 204.812C681.959 205.028 684.875 206.54 687.791 209.348C690.275 211.832 691.787 214.856 693.082 217.988ZM736.833 223.82C737.913 224.684 739.101 226.628 738.885 227.924C738.777 229.22 737.265 231.056 736.077 231.38C732.945 232.136 729.597 232.136 729.273 232.244C724.629 232.244 723.009 232.244 721.389 232.244C707.889 232.136 703.461 220.796 704.973 211.184C705.513 208.052 706.809 204.92 707.889 201.896C708.321 200.816 709.185 199.844 710.157 198.98C711.021 198.224 712.317 197.792 713.289 197.144C721.929 191.312 725.061 191.42 732.729 198.008C734.673 199.736 735.537 206.432 733.917 208.376C733.161 209.24 731.973 209.888 730.893 210.32C727.113 211.94 723.333 213.236 719.661 214.964C718.149 215.612 716.637 216.476 715.665 217.772C712.533 221.552 721.497 224.9 724.305 223.928C726.789 222.956 729.597 223.604 732.297 222.74C733.593 222.416 735.645 222.956 736.833 223.82ZM716.205 205.028C715.449 206 715.989 207.08 717.285 207.404C718.905 207.728 720.417 207.404 721.713 206.54C722.577 206 724.089 204.704 724.197 203.732C724.197 203.192 723.765 202.652 722.577 202.436C719.985 201.896 717.825 202.868 716.205 205.028ZM907.852 223.604C908.824 224.576 909.904 225.656 910.12 227.06C910.444 228.68 909.256 230.3 908.068 231.596C907.636 232.028 907.204 232.568 906.664 232.784C906.124 233 905.368 233 904.828 232.892C899.968 232.028 901.696 227.276 898.024 224.036C892.84 219.5 890.572 217.772 883.876 216.584C879.34 215.72 874.48 215.18 870.7 217.664C865.408 221.12 864.76 228.572 860.656 233.324C859.252 234.944 856.876 236.348 854.824 235.484C852.448 234.62 851.8 231.704 851.584 229.328C850.828 221.876 851.044 214.316 851.368 206.864C851.584 197.9 851.8 188.936 850.072 180.188C849.424 176.408 848.344 172.628 848.668 168.848C849.1 163.664 853.42 165.608 855.256 168.956C856.336 170.684 856.768 172.628 857.092 174.572C859.144 184.832 860.872 195.416 859.468 205.892C859.252 207.62 859.252 210.104 860.98 210.536C862.276 210.86 863.464 209.672 864.652 209.024C866.704 208.052 869.08 208.484 871.24 208.052C873.076 207.512 874.804 206.324 876.748 206.216C878.368 206.216 879.88 206.972 881.392 207.404C883.984 208.052 886.576 207.728 889.168 207.836C894.676 208.052 895.216 210.212 899.752 213.236C904.396 216.152 903.748 219.932 907.852 223.604ZM831.064 184.184C833.008 184.724 834.628 185.804 835.492 187.424C836.14 188.504 836.032 189.908 835.384 190.988C834.736 191.96 833.656 192.284 832.792 192.608H832.576C831.496 193.04 830.416 193.256 829.336 193.58C825.772 194.552 822.1 195.524 820.048 198.656C819.832 199.088 819.508 199.52 819.508 199.952C819.4 200.384 819.508 201.032 819.832 201.788C820.912 203.948 823.18 206.324 825.34 208.7C827.176 210.644 828.904 212.48 829.984 214.1C830.956 215.72 831.604 217.772 832.036 220.256C832.252 222.092 832.252 223.712 832.036 225.116C831.928 225.44 831.82 225.764 831.712 226.088C830.416 230.192 825.988 233.972 822.748 235.052C820.156 236.024 817.672 236.348 815.296 236.672C813.028 236.996 810.652 237.32 808.168 238.184C806.44 238.724 804.496 239.48 802.336 239.48C802.12 239.48 801.904 239.48 801.58 239.48C799.528 239.264 797.152 237.752 796.936 235.268C796.828 233.972 797.368 232.568 798.448 231.596C799.42 230.84 800.608 230.408 801.58 229.976C804.928 228.788 808.276 228.356 811.516 227.924C813.892 227.6 816.484 227.276 819.076 226.52C820.156 226.304 821.02 226.088 821.776 225.548C822.424 225.116 823.504 222.092 823.612 221.012C823.612 219.5 822.532 218.204 821.452 217.016C820.372 215.936 818.968 213.992 817.564 212.156C816.052 210.428 814.648 208.484 813.568 207.404C812.812 206.54 811.948 205.568 811.408 204.38C810.976 203.192 810.76 201.788 811.084 200.168C811.732 195.308 812.704 193.904 815.944 190.664C817.456 189.152 821.884 186.668 824.584 185.156C825.124 184.94 825.556 184.616 825.88 184.508C827.176 183.752 829.12 183.644 831.064 184.184ZM959.187 231.704C959.295 232.028 959.295 232.352 959.187 232.784C958.971 234.08 957.999 235.484 956.919 236.024C954.759 237.212 951.519 236.564 950.655 235.052C949.251 232.46 947.847 229.868 947.739 226.736C947.739 225.332 947.199 223.712 946.335 222.524C945.903 221.876 944.283 221.12 943.743 221.444C941.691 222.416 940.071 223.928 938.127 225.116C936.831 225.98 935.535 226.736 934.023 227.06C926.031 229.112 919.011 222.2 920.739 213.992C920.955 212.912 921.387 211.832 921.819 210.86C924.627 204.92 928.839 200.384 934.779 197.36C940.611 194.336 945.687 196.064 950.439 199.52C951.411 200.276 952.059 202.112 951.951 203.516C951.627 209.24 952.707 214.64 954.543 220.04C955.515 222.848 956.919 225.44 958.107 228.248C958.539 229.328 958.971 230.516 959.187 231.704ZM941.151 211.724C942.015 210.86 945.363 207.836 945.147 206C945.039 205.352 944.607 204.812 943.419 204.596C936.399 203.192 929.919 208.052 929.163 215.396C928.839 217.88 931.647 218.636 933.591 218.204C936.507 217.556 939.207 213.668 941.151 211.724ZM1004.36 194.012C1011.49 194.228 1019.59 202.868 1016.35 212.804C1016.13 213.56 1015.7 214.316 1015.16 214.964C1009.22 222.308 1001.77 226.52 992.261 226.952C990.965 227.06 989.669 227.168 988.373 227.06C981.029 226.52 979.841 228.68 982.109 236.456C982.433 237.644 983.189 238.724 983.513 239.912C984.593 244.232 983.621 247.58 981.353 247.472C978.221 247.256 977.141 245.096 976.061 242.612C972.497 233.648 970.769 224.252 970.985 211.616C970.985 212.48 970.985 211.4 970.985 210.32C970.985 206.432 970.769 202.652 974.009 199.628C977.573 196.388 981.569 194.012 986.429 194.012C992.477 193.904 998.417 193.796 1004.36 194.012ZM1007.27 210.644C1008.68 208.7 1008.79 206.648 1007.27 205.028C1005.44 203.192 1003.49 201.464 1000.69 201.464C996.473 201.464 992.153 201.356 987.941 201.68C981.461 202.22 977.573 207.728 978.977 214.424C979.193 215.396 980.381 216.584 981.353 216.8C983.837 217.34 986.429 217.34 988.913 217.556C995.933 217.556 1002.63 216.8 1007.27 210.644ZM970.985 211.184V211.616C970.985 211.508 970.985 211.292 970.985 211.184ZM1060.41 223.82C1061.49 224.684 1062.68 226.628 1062.46 227.924C1062.35 229.22 1060.84 231.056 1059.65 231.38C1056.52 232.136 1053.17 232.136 1052.85 232.244C1048.21 232.244 1046.59 232.244 1044.97 232.244C1031.47 232.136 1027.04 220.796 1028.55 211.184C1029.09 208.052 1030.39 204.92 1031.47 201.896C1031.9 200.816 1032.76 199.844 1033.73 198.98C1034.6 198.224 1035.89 197.792 1036.87 197.144C1045.51 191.312 1048.64 191.42 1056.31 198.008C1058.25 199.736 1059.11 206.432 1057.49 208.376C1056.74 209.24 1055.55 209.888 1054.47 210.32C1050.69 211.94 1046.91 213.236 1043.24 214.964C1041.73 215.612 1040.21 216.476 1039.24 217.772C1036.11 221.552 1045.07 224.9 1047.88 223.928C1050.37 222.956 1053.17 223.604 1055.87 222.74C1057.17 222.416 1059.22 222.956 1060.41 223.82ZM1039.78 205.028C1039.03 206 1039.57 207.08 1040.86 207.404C1042.48 207.728 1043.99 207.404 1045.29 206.54C1046.15 206 1047.67 204.704 1047.77 203.732C1047.77 203.192 1047.34 202.652 1046.15 202.436C1043.56 201.896 1041.4 202.868 1039.78 205.028ZM1085.35 230.408C1085.46 231.488 1085.46 232.568 1085.35 230.84C1085.67 237.86 1084.48 238.4 1080.38 239.804C1078.54 240.344 1076.06 239.804 1074.33 238.94C1073.68 238.616 1073.68 236.132 1073.9 234.728C1074.22 232.136 1074.66 230.084 1075.2 227.492C1075.63 225.008 1077.25 224.36 1081.35 224.36C1084.48 224.468 1084.92 227.168 1085.35 230.408ZM146.712 320.256C146.28 321.876 145.416 323.388 145.308 325.008C145.308 334.296 145.092 343.584 145.092 352.98C145.092 354.168 146.28 355.248 146.712 356.544C147.684 359.568 145.848 362.7 142.824 363.564C139.692 364.428 135.156 361.728 135.048 358.272C134.94 351.684 135.048 345.096 135.372 338.508C135.588 334.296 136.776 330.192 137.1 325.98C137.424 321.66 137.316 317.232 137.424 312.804C137.424 308.808 137.532 305.028 139.044 301.14C140.34 297.576 140.34 293.472 138.828 289.584C137.856 286.776 139.692 284.508 142.608 284.076C145.092 283.644 147.36 285.048 147.36 287.316C147.468 292.608 147.36 297.792 147.36 305.568C147.468 308.592 147.468 311.724 147.36 314.748C147.36 316.584 147.144 318.42 146.712 320.256ZM193.374 348.12V348.228C195.642 348.12 196.83 348.984 197.046 350.712C197.262 352.764 196.074 353.628 194.454 354.6C190.998 356.76 186.678 356.76 182.682 356.544C182.358 356.544 181.926 356.544 181.602 356.436C177.498 356.22 173.394 356.436 170.37 353.304C169.182 352.116 167.454 351.576 166.158 350.496C165.51 349.848 164.862 348.768 164.862 347.904C164.538 338.4 166.806 329.868 174.258 323.388C177.066 320.904 180.414 319.5 184.41 319.5C188.298 319.5 190.782 321.552 192.618 324.576C194.238 327.168 193.374 332.352 190.998 334.836C187.758 338.292 184.842 342.072 180.522 344.34C179.766 344.664 179.118 345.96 179.118 346.716C179.334 348.444 180.954 348.444 182.25 348.444C185.922 348.444 189.594 348.228 193.374 348.12ZM174.366 339.696C174.798 339.804 175.338 339.696 176.094 339.48C179.874 338.076 184.086 333.108 186.03 329.652C187.542 327.276 183.87 326.196 182.25 326.952C179.766 328.032 177.39 329.76 175.878 332.028C174.798 333.432 171.99 339.156 174.366 339.696ZM225.234 321.552C222.75 321.876 221.022 323.712 219.51 325.548C217.674 327.708 217.89 331.164 220.266 332.676C222.21 333.972 224.37 335.376 226.638 335.7C230.31 336.348 232.578 338.832 234.846 341.208C237.114 343.476 237.33 348.228 235.386 350.604C233.874 352.44 232.254 354.384 230.202 355.464C225.882 357.948 221.238 360.108 216.486 362.052C213.786 363.24 211.086 362.052 209.79 359.568C207.738 355.788 209.25 352.224 213.246 352.44C218.754 352.764 222.966 350.064 227.502 347.796C228.474 347.148 228.366 345.096 227.61 344.232C225.558 341.856 222.642 341.964 220.158 340.992C215.406 339.156 212.598 335.592 210.87 330.948C210.546 329.976 210.33 328.896 210.546 327.924C211.842 322.632 214.974 318.42 219.618 316.26C223.83 314.424 228.69 314.1 232.47 313.344C233.55 313.02 236.898 313.884 237.654 314.64C239.49 316.584 236.358 319.5 234.09 319.392C230.85 319.176 228.258 321.12 225.234 321.552ZM275.906 355.572C276.878 358.812 277.526 362.376 277.094 365.832C276.878 367.668 275.582 373.284 273.638 374.148C271.693 375.012 269.426 375.552 267.266 375.66C265.322 375.768 263.486 375.552 261.65 375.336C256.466 374.904 251.282 374.688 246.206 374.688C244.37 374.688 242.641 374.688 241.021 373.932C239.401 373.284 238.105 371.664 238.321 369.936C238.537 367.452 241.453 366.372 243.938 365.94C246.746 365.508 249.662 365.508 252.578 365.724C254.846 365.94 256.466 366.048 258.842 365.832C261.434 365.724 264.242 366.372 267.05 366.264C267.806 366.264 268.346 366.048 268.562 365.832C268.778 365.616 268.886 365.076 268.778 364.32C268.67 363.132 268.346 361.836 268.022 360.648C267.914 360.216 267.806 359.676 267.698 359.244C267.59 358.812 267.482 358.272 267.374 357.84C267.158 356.652 266.942 355.356 266.51 354.168C265.754 352.332 264.998 350.064 264.026 348.12C262.838 345.744 261.974 343.152 261.11 340.668C260.354 338.292 259.598 335.7 258.41 333.432C257.33 331.38 257.546 329.112 257.006 327.06C256.79 326.52 256.574 326.088 256.466 325.656C255.602 323.496 256.358 321.444 257.114 319.284C257.33 318.96 257.438 318.528 257.546 318.204C258.734 314.856 261.326 312.804 263.486 311.292C264.89 310.32 266.726 310.752 268.238 310.86C270.398 310.968 271.693 313.668 271.37 315.72C271.154 317.124 269.21 318.636 267.914 318.852C266.078 319.176 265.754 319.608 265.322 321.444C264.242 324.9 265.214 327.6 266.51 330.732C266.834 331.596 267.158 332.352 267.482 333.108C269.534 337.644 271.046 342.504 272.882 347.148C273.962 349.848 275.042 352.656 275.906 355.572ZM400.451 348.66C400.451 351.252 401.423 355.14 399.803 357.408C399.047 358.596 397.751 359.568 396.563 359.892C396.023 360.108 394.403 358.704 394.295 357.84C393.755 354.924 393.215 351.9 393.431 348.876C393.863 344.664 392.567 340.776 391.487 336.78C390.839 334.62 389.543 333.54 387.491 333.432C385.223 333.324 382.955 333.756 382.091 336.348C381.119 338.832 380.471 341.316 379.283 343.692C377.663 346.608 377.123 350.28 373.991 352.224C373.127 352.764 371.831 353.196 371.075 352.98C370.211 352.656 369.131 351.468 369.023 350.496C368.591 348.336 368.483 346.068 368.591 343.8C368.807 339.804 366.539 336.564 365.675 333C365.027 330.732 360.383 329.76 358.007 330.84C352.931 333.108 350.663 337.428 350.339 342.396C350.015 347.364 348.719 352.008 347.963 356.868C347.639 358.92 346.451 360.972 345.695 363.024C345.047 364.752 343.751 365.616 342.239 364.968C340.943 364.32 339.323 363.024 339.107 361.836C337.595 352.224 339.431 343.152 344.183 334.728C345.479 332.352 346.991 330.192 348.611 328.14C351.527 324.468 355.415 322.308 360.275 322.2C363.407 322.2 366.215 322.956 368.375 325.44C370.103 327.492 372.047 329.328 373.991 331.056C374.423 331.38 375.611 331.488 376.043 331.164C377.771 329.76 379.499 328.248 381.119 326.628C383.279 324.468 385.871 324.468 388.463 324.9C394.727 326.088 399.371 330.84 400.019 337.104C400.451 340.56 400.451 343.908 400.451 347.364C400.451 347.796 400.451 348.228 400.451 348.66ZM445.023 330.3C447.615 332.244 448.587 335.052 448.479 338.292C448.371 342.828 446.319 346.176 443.727 349.524C441.675 352.224 438.651 352.332 435.735 353.304C431.847 354.708 428.391 353.736 424.935 352.548C421.047 351.252 417.375 349.092 415.215 345.204C413.487 342.288 412.191 338.508 411.975 334.836C411.759 331.704 412.407 328.572 414.351 325.98C416.295 323.496 418.455 321.876 421.911 322.524C424.503 323.064 427.095 323.28 429.687 323.496C435.627 324.036 440.487 326.952 445.023 330.3ZM438.759 340.884C440.271 339.156 439.515 336.24 437.679 335.052C434.007 332.784 430.119 331.92 426.663 332.136C419.427 332.028 418.779 333 421.155 339.156C422.451 342.612 428.175 346.5 431.739 346.176C432.495 346.068 433.359 345.96 433.899 345.528C435.519 344.016 437.247 342.612 438.759 340.884ZM503.056 323.712C503.488 326.412 501.976 330.192 499.924 333.648C496.144 339.696 492.256 345.744 488.152 351.576C486.856 353.196 484.588 354.168 482.86 355.464C481.348 356.544 479.836 356.976 478 356.004C474.652 354.384 471.628 352.656 469.36 349.74C463.312 342.18 460.072 333.54 459.964 323.928C459.856 322.308 461.044 320.688 461.908 319.176C462.556 317.988 464.392 318.204 465.364 318.96C467.2 320.58 467.308 322.74 467.74 325.008C469.252 332.568 472.276 339.372 477.676 344.988C479.188 346.5 481.132 346.392 481.996 344.556C485.992 336.132 493.012 329.328 495.28 319.932C495.712 317.88 497.44 317.232 499.384 317.448C501.436 317.556 502.408 318.96 502.732 320.904C502.732 321.336 502.84 321.768 503.056 323.712ZM542.898 348.12V348.228C545.166 348.12 546.354 348.984 546.57 350.712C546.786 352.764 545.598 353.628 543.978 354.6C540.522 356.76 536.202 356.76 532.206 356.544C531.882 356.544 531.45 356.544 531.126 356.436C527.022 356.22 522.918 356.436 519.894 353.304C518.706 352.116 516.978 351.576 515.682 350.496C515.034 349.848 514.386 348.768 514.386 347.904C514.062 338.4 516.33 329.868 523.782 323.388C526.59 320.904 529.938 319.5 533.934 319.5C537.822 319.5 540.306 321.552 542.142 324.576C543.762 327.168 542.898 332.352 540.522 334.836C537.282 338.292 534.366 342.072 530.046 344.34C529.29 344.664 528.642 345.96 528.642 346.716C528.858 348.444 530.478 348.444 531.774 348.444C535.446 348.444 539.118 348.228 542.898 348.12ZM523.89 339.696C524.322 339.804 524.862 339.696 525.618 339.48C529.398 338.076 533.61 333.108 535.554 329.652C537.066 327.276 533.394 326.196 531.774 326.952C529.29 328.032 526.914 329.76 525.402 332.028C524.322 333.432 521.514 339.156 523.89 339.696ZM574.758 321.552C572.274 321.876 570.546 323.712 569.034 325.548C567.198 327.708 567.414 331.164 569.79 332.676C571.734 333.972 573.894 335.376 576.162 335.7C579.834 336.348 582.102 338.832 584.37 341.208C586.638 343.476 586.854 348.228 584.91 350.604C583.398 352.44 581.778 354.384 579.726 355.464C575.406 357.948 570.762 360.108 566.01 362.052C563.31 363.24 560.61 362.052 559.314 359.568C557.262 355.788 558.774 352.224 562.77 352.44C568.278 352.764 572.49 350.064 577.026 347.796C577.998 347.148 577.89 345.096 577.134 344.232C575.082 341.856 572.166 341.964 569.682 340.992C564.93 339.156 562.122 335.592 560.394 330.948C560.07 329.976 559.854 328.896 560.07 327.924C561.366 322.632 564.498 318.42 569.142 316.26C573.354 314.424 578.214 314.1 581.994 313.344C583.074 313.02 586.422 313.884 587.178 314.64C589.014 316.584 585.882 319.5 583.614 319.392C580.374 319.176 577.782 321.12 574.758 321.552ZM700.664 314.856C702.176 315.18 702.824 319.284 701.528 320.364C700.988 320.796 700.232 321.444 699.584 321.444C696.668 321.552 693.752 321.12 690.944 321.552C686.3 322.416 682.412 324.576 680.576 329.328C679.928 331.272 680.036 332.892 681.44 333.648C683.168 334.728 685.112 335.592 686.84 336.672C694.076 340.884 696.668 349.308 693.428 356.868C691.376 361.512 687.92 364.968 683.816 367.884C681.116 369.936 675.824 368.964 673.664 366.372C671.18 363.456 672.476 358.056 676.148 357.192C678.092 356.652 680.252 356.976 682.196 356.652C685.652 356.004 687.704 352.116 686.084 349.2C685.112 347.472 684.032 345.636 682.52 344.232C680.468 342.288 677.984 340.884 675.824 338.832C670.748 334.08 670.532 327.816 675.068 322.416C679.928 316.8 685.76 313.452 696.128 314.1C695.912 314.1 698.288 314.424 700.664 314.856ZM656.492 329.22C658.436 329.436 659.3 330.732 659.408 332.568C659.516 334.188 659.408 335.808 659.408 337.428C659.732 344.556 657.248 351.036 655.304 357.732C654.872 358.812 654.332 360.108 653.468 360.756C652.604 361.404 651.092 361.62 650.012 361.296C649.148 361.08 648.284 360 647.744 359.028C647.312 358.38 647.312 357.408 647.42 356.652C649.148 348.228 650.768 339.804 652.604 331.488C653.036 329.652 654.764 329.112 656.492 329.22ZM653.144 300.168C656.168 298.548 658.436 299.52 659.516 302.544C659.84 303.3 659.624 304.164 659.624 306.54C659.624 306.648 659.516 308.268 659.192 309.888C658.328 313.56 652.496 315.396 649.796 312.588C646.988 309.888 649.904 302.004 653.144 300.168ZM794.502 334.296C802.062 338.508 802.926 349.2 796.338 354.816C789.642 360.54 785.322 362.052 775.278 362.052C774.522 362.052 772.902 362.268 771.498 361.836C766.638 360.432 762.426 358.812 760.59 352.872C758.322 345.096 758.106 337.86 760.59 330.192C762.75 323.604 765.666 317.232 766.314 310.212C766.314 309.132 767.286 308.16 767.934 307.188C769.554 304.812 772.578 303.3 773.658 304.38C775.386 305.892 775.17 307.944 774.738 309.78C773.442 314.64 772.038 319.392 770.634 324.144C770.418 324.9 770.202 325.764 770.418 326.52C771.498 329.544 773.55 329.436 776.466 330.192C779.49 331.056 782.514 332.028 785.754 331.596C788.994 331.272 791.802 332.784 794.502 334.296ZM790.83 347.472C792.234 345.852 791.802 341.964 789.966 341.316C783.702 339.264 777.33 337.86 770.742 338.724C766.638 339.372 764.478 344.124 766.854 347.688C768.366 350.064 770.202 352.332 773.226 352.872C774.306 353.088 775.494 353.088 776.682 352.98H776.79C782.19 352.548 786.942 351.792 790.83 347.472ZM844.305 350.82C845.385 351.684 846.573 353.628 846.357 354.924C846.249 356.22 844.737 358.056 843.549 358.38C840.417 359.136 837.069 359.136 836.745 359.244C832.101 359.244 830.481 359.244 828.861 359.244C815.361 359.136 810.933 347.796 812.445 338.184C812.985 335.052 814.281 331.92 815.361 328.896C815.793 327.816 816.657 326.844 817.629 325.98C818.493 325.224 819.789 324.792 820.761 324.144C829.401 318.312 832.533 318.42 840.201 325.008C842.145 326.736 843.009 333.432 841.389 335.376C840.633 336.24 839.445 336.888 838.365 337.32C834.585 338.94 830.805 340.236 827.133 341.964C825.621 342.612 824.109 343.476 823.137 344.772C820.005 348.552 828.969 351.9 831.777 350.928C834.261 349.956 837.069 350.604 839.769 349.74C841.065 349.416 843.117 349.956 844.305 350.82ZM823.677 332.028C822.921 333 823.461 334.08 824.757 334.404C826.377 334.728 827.889 334.404 829.185 333.54C830.049 333 831.561 331.704 831.669 330.732C831.669 330.192 831.237 329.652 830.049 329.436C827.457 328.896 825.297 329.868 823.677 332.028ZM936.742 316.26C938.146 317.448 937.822 319.716 936.742 321.012C935.554 322.416 933.826 323.172 932.098 323.82C930.478 324.468 928.858 325.224 927.022 325.44C926.266 325.548 925.51 325.656 924.862 326.088C923.782 326.844 923.674 328.248 923.566 329.544C923.35 337.32 923.134 345.204 924.322 352.98C924.538 354.816 924.97 356.76 924.106 358.488C923.35 360.216 920.758 361.404 919.246 360.216C918.598 359.784 918.274 359.136 918.058 358.596C914.17 350.172 916.006 340.56 915.466 331.488C915.358 330.408 915.25 329.328 914.602 328.464C913.738 327.492 912.226 327.168 910.822 326.952C908.662 326.52 906.502 328.248 904.234 327.924C903.262 327.708 902.074 327.492 901.426 326.736C900.346 325.548 900.994 323.604 902.29 322.74C903.586 321.876 905.422 321.768 907.042 321.876C908.662 321.984 910.282 320.148 911.902 319.824C912.982 319.716 914.062 319.176 914.494 318.312C914.818 317.556 914.71 316.692 914.494 315.936C913.954 313.02 913.198 310.212 913.306 307.404C913.414 304.92 915.25 301.032 917.302 300.276C918.49 299.844 919.678 300.384 920.65 302.976C921.298 304.488 921.298 306.108 921.298 307.62C921.298 309.78 921.298 312.048 921.298 314.208C921.298 315.936 921.514 317.88 923.026 318.96C925.078 320.256 927.886 318.852 929.83 317.448C931.882 316.044 934.906 314.748 936.742 316.26ZM891.49 324.252C893.758 324.252 896.566 325.332 896.674 327.492C896.674 329.112 894.838 330.3 893.11 330.84C891.382 331.38 889.33 331.596 888.034 332.784C886.63 333.972 886.306 336.024 886.198 337.86C885.334 345.312 884.578 352.656 883.822 360.108C883.714 361.62 883.498 363.24 882.742 364.644C881.878 366.048 880.366 367.128 878.638 366.804C877.126 366.588 875.938 365.292 875.29 363.888C874.75 362.592 874.642 361.296 874.642 360C874.642 357.192 875.398 354.276 876.046 351.576C876.694 348.012 876.91 344.448 876.586 340.884C876.478 340.236 876.37 339.48 876.046 338.94C875.29 337.86 873.778 337.644 872.482 337.86C871.186 338.076 869.998 338.616 868.81 339.048C866.542 339.804 864.166 339.912 861.898 339.264C859.63 338.616 857.254 336.78 857.686 334.62C858.118 331.92 861.79 331.272 864.706 331.164C868.918 331.056 873.886 330.516 875.83 327.06C876.91 325.116 876.694 322.848 876.37 320.688C875.938 317.448 875.182 314.208 874.318 311.076C873.562 308.16 872.374 304.596 873.562 301.68C875.398 297.144 879.178 301.14 880.582 303.84C881.662 306 881.986 308.376 882.418 310.644C882.958 313.668 883.39 316.584 883.93 319.608C884.038 320.688 884.254 321.768 885.01 322.632C886.414 324.36 889.114 324.144 891.49 324.252ZM980.453 346.716C982.289 346.176 984.341 347.364 984.665 348.984C985.097 350.928 984.881 353.088 983.153 353.952C975.377 358.272 967.493 362.376 958.313 360.54C956.045 360.108 954.425 358.812 953.021 357.192C948.053 351.468 947.405 338.292 951.617 331.488C954.101 327.384 957.881 325.548 961.985 324.252C962.849 323.928 964.037 324.252 965.009 324.576C967.709 325.548 970.301 326.52 972.893 327.6C975.701 329.004 976.889 331.92 976.025 335.052C974.837 339.588 972.569 343.368 969.005 345.96C966.953 347.472 964.577 348.336 962.417 349.632C961.769 350.064 960.257 351.36 960.257 352.332C960.257 353.736 962.417 353.304 963.281 353.088C967.169 352.548 971.273 351.252 974.513 348.984C976.241 347.796 978.401 347.256 980.453 346.716ZM958.313 341.748C959.069 342.288 959.933 342.396 960.797 342.18C961.553 342.072 962.417 341.64 963.065 341.208C964.685 340.128 966.089 338.616 967.061 336.888C967.277 336.564 967.493 336.132 967.601 335.808C967.709 335.376 967.709 335.052 967.709 334.728C967.385 333 964.793 332.568 963.389 332.676C961.229 332.784 959.069 334.08 957.881 336.132C957.341 336.996 957.017 338.076 957.125 339.048C957.125 340.128 957.557 341.208 958.313 341.748ZM1017.6 321.984C1019.01 322.308 1020.84 324.468 1020.95 325.872C1021.06 328.464 1019.22 329.328 1016.96 329.76C1014.15 330.3 1011.88 330.948 1009.83 333C1006.37 336.132 1004.54 336.564 1003.56 341.856C1003.02 345.096 1003.35 348.444 1002.92 351.792C1002.59 354.168 999.137 356.652 996.869 355.896C996.437 355.68 996.005 355.356 995.573 354.924C995.033 354.06 995.249 353.088 995.141 352.116C995.033 350.28 994.709 348.552 994.385 346.824C993.629 343.152 992.549 339.696 991.253 336.24C989.849 332.568 992.117 329.868 995.465 331.272C997.733 332.244 998.921 332.352 1000.86 330.624C1002.92 328.572 1004.64 326.088 1007.13 324.468C1009.61 322.848 1012.74 322.2 1015.66 321.876C1016.31 321.876 1016.96 321.768 1017.6 321.984ZM1043.79 357.408C1043.9 358.488 1043.9 359.568 1043.79 357.84C1044.12 364.86 1042.93 365.4 1038.83 366.804C1036.99 367.344 1034.51 366.804 1032.78 365.94C1032.13 365.616 1032.13 363.132 1032.35 361.728C1032.67 359.136 1033.1 357.084 1033.64 354.492C1034.07 352.008 1035.69 351.36 1039.8 351.36C1042.93 351.468 1043.36 354.168 1043.79 357.408Z" fill="black"/>
<path d="M70.3128 151.45C71.1877 146.219 76.9804 130.366 101.354 102.828C112.971 89.7029 124.011 83.6744 131.594 79.5338C139.278 75.338 152.404 71.7627 171.218 68.4006C191.88 64.708 207.041 68.0165 214.052 71.7336C234.261 82.4478 240.515 108.993 240.874 109.315C249.662 117.202 246.02 76.6723 254.768 55.2739C258.685 45.6937 265.64 40.4795 279.437 31.602C296.739 20.4696 324.989 21.71 342.403 27.0141C358.225 31.8335 367.582 50.391 378.101 66.9955C384.808 77.5842 391.09 94.4339 394.862 98.0075C408.814 111.228 402.643 70.0966 413.338 52.6273C427.262 29.8853 451.145 17.2838 465.724 10.9248C488.084 1.17156 504.942 7.43379 511.858 10.9787C523.995 17.1997 528.635 27.9485 537.429 55.8347C546.395 84.2662 544.456 105.12 545.643 107.14C547.272 109.911 549.703 100.579 551.03 96.9016C552.456 92.9545 568.535 74.6223 591.962 48.7829C608.726 30.2916 629.077 20.8705 654.47 12.9148C662.83 10.2958 671.223 10.3098 680.031 10.9279C692.889 11.8304 697.097 37.4811 699.118 55.4811C700.151 64.672 699.208 80.9836 699.674 88.1576C700.141 95.3317 701.109 92.9326 703.421 89.2691C713.296 73.6229 724.395 67.7294 751.155 58.6188C766.047 53.5488 779.373 54.3883 787.575 54.7896C802.89 55.5389 815.126 80.2192 819.256 90.0029C820.808 93.6785 821.037 102.427 822.1 113.166C822.538 117.587 838.143 103.285 858.447 81.037C869.838 68.5544 879.506 64.3646 890.161 60.4477C919.062 49.824 940.2 54.0773 943.23 55.005C955.822 58.8611 967.135 81.9382 969.929 95.9797C972.182 107.302 969.731 116.312 969.422 118.375C968.192 126.571 999.01 97.5411 1014.78 90.8421C1037.45 81.2099 1068.48 89.8677 1082.66 97.3581C1107.04 110.234 1113.12 123.327 1117.52 132.32C1119.35 136.053 1118.6 140.658 1117.77 145.119C1116.08 154.147 1106.14 156.407 1103.87 158.548C1095.74 166.214 1126.19 165.483 1141.54 177.889C1161.11 193.699 1164.97 209.719 1168.66 223.861C1171.3 234.016 1168.99 242.351 1167.98 245.695C1165.86 252.743 1143.11 274.724 1127.65 288.808C1117.65 297.911 1096.65 298.447 1090.92 299.19C1088.29 299.532 1098.04 301.216 1102.5 302.342C1106.46 303.344 1118.43 321.638 1135.59 349.213C1149.78 372.012 1148.66 392.267 1146.6 403.515C1145.28 410.66 1134.76 414.418 1128.18 416.854C1115.25 421.645 1094.01 415.763 1081.16 411.252C1070.17 407.394 1073.19 450.189 1061.2 479.519C1054.9 494.925 1048.32 499.323 1041.88 504.456C1038.15 507.427 1032.92 509.283 1024.42 511.996C1009.88 516.643 983.917 518.05 956.526 518.203C930.841 518.347 909.539 508.68 897.202 501.975C887.115 496.492 880.151 483.103 875.316 471.523C873.983 468.329 873.063 464.993 872.396 464.736C863.011 461.131 865.35 485.869 860.11 491.779C851.512 501.474 834.094 504.067 797.406 505.6C778.374 506.396 764.056 498.693 745.886 487.663C735.313 481.245 729.599 470.04 720.826 457.251C707.345 437.601 712.772 494.922 703.367 508.361C695.238 519.978 683.84 519.51 669.043 521.113C642.156 524.026 627.731 517.825 613.171 511.833C602.98 507.639 594.327 499.883 587.126 493.286C569.182 476.849 559.332 450.633 556.908 448.225C539.416 430.849 546.538 492.922 538.349 506.959C531.154 519.291 517.212 524.751 502.905 531.284C484.037 539.901 448.904 532.915 434.886 528.369C426.895 525.777 414.059 514.829 398.932 501.828C384.364 489.307 374.077 460.48 368.468 447.263C366.195 441.905 351.596 476.025 339.823 494.367C333.718 503.879 319.329 505.873 307.878 507.11C281.532 509.957 271.255 502.735 262.266 497.304C254.037 492.332 248.956 484.043 240.448 465.165C237.045 457.614 236.916 448.437 235.627 441.422C232.039 421.889 200.898 480.909 189.069 486.357C184.603 488.413 169.053 488.363 145.938 488.067C130.377 487.867 113.241 481.697 91.864 472.837C58.5365 459.025 47.5249 441.458 41.0008 430.19C34.2573 418.543 40.0471 405.969 40.5913 404.298C41.1453 402.597 34.5827 405.223 29.3105 404.757C18.6783 403.816 12.5077 393.866 8.57022 386.847C0.912602 373.197 7.50934 343.109 10.4801 333.281C12.7493 325.774 21.0139 320.558 29.0873 316.626C33.3842 314.533 38.4783 313.981 40.5543 311.893C44.5341 307.89 32.4141 302.51 29.683 297.746C26.4674 292.136 22.8367 268.009 18.634 235.299C17.0752 223.166 17.2556 220.03 17.8531 217.563C19.8017 209.517 28.9741 207.835 34.8389 206.856C38.0289 206.324 42.8714 209.138 48.2423 212.719C50.5719 214.272 51.8632 215.628 50.3415 210.536C39.8246 175.343 40.6862 158.163 44.0419 149.519C47.0433 141.788 58.6247 140.2 65.0997 140.436C67.7921 142.213 70.0021 144.834 71.74 147.858C72.5176 149.482 73.0832 151.287 74.0283 156.138" stroke="black" stroke-width="10" stroke-linecap="round"/>
</svg>
